<?xml version="1.0" encoding="UTF-8"?>
<svg width="256" height="256" viewBox="0 0 256 256" xmlns="http://www.w3.org/2000/svg">
  <defs>
    <linearGradient id="bgGrad" x1="0" x2="1" y1="0" y2="1">
      <stop offset="0%" stop-color="#0b0b0c"/>
      <stop offset="100%" stop-color="#141416"/>
    </linearGradient>
    <linearGradient id="accentGrad" x1="0" x2="1" y1="0" y2="1">
      <stop offset="0%" stop-color="#6fa0ff"/>
      <stop offset="100%" stop-color="#5b8cff"/>
    </linearGradient>
    <filter id="soft" x="-20%" y="-20%" width="140%" height="140%" color-interpolation-filters="sRGB">
      <feGaussianBlur in="SourceAlpha" stdDeviation="6" result="blur"/>
      <feColorMatrix in="blur" type="matrix" values="0 0 0 0 0  0 0 0 0 0  0 0 0 0 0  0 0 0 0.28 0" result="shadow"/>
      <feBlend in="SourceGraphic" in2="shadow" mode="normal"/>
    </filter>
  </defs>

  <!-- Rounded background -->
  <rect x="8" y="8" width="240" height="240" rx="56" fill="url(#bgGrad)"/>
  <rect x="8" y="8" width="240" height="240" rx="56" fill="#ffffff" opacity="0.02"/>

  <!-- Subtle inner ring -->
  <circle cx="128" cy="128" r="108" fill="none" stroke="#2c2c2e" stroke-width="2" opacity="0.7"/>

  <!-- Tab shape top (represents browser tab) -->
  <g filter="url(#soft)">
    <path d="M64 78c0-8.8 7.2-16 16-16h48c6 0 10.9 3.3 13.8 8.2 2.6 4.3 7.2 6.8 12.1 6.8H176c8.8 0 16 7.2 16 16v10H64V78z" fill="#1c1c1e" stroke="#2c2c2e" stroke-width="2"/>
  </g>

  <!-- Chat bubble -->
  <g filter="url(#soft)">
    <path d="M76 108h104c13.3 0 24 10.7 24 24v20c0 13.3-10.7 24-24 24h-44l-22 16c-2.9 2.1-7 0.1-7-3.5V176H76c-13.3 0-24-10.7-24-24v-20c0-13.3 10.7-24 24-24z" fill="url(#accentGrad)"/>
    <circle cx="104" cy="146" r="6" fill="#ffffff" opacity="0.95"/>
    <circle cx="128" cy="146" r="6" fill="#ffffff" opacity="0.95"/>
    <circle cx="152" cy="146" r="6" fill="#ffffff" opacity="0.95"/>
  </g>

  <!-- Soft highlight -->
  <ellipse cx="96" cy="64" rx="56" ry="18" fill="#ffffff" opacity="0.08"/>
</svg>

